<svg id="图层_1" data-name="图层 1" xmlns="http://www.w3.org/2000/svg" viewBox="0 0 1200 600"><defs><style>.cls-1{fill:#1e2019;}.cls-2{fill:#f7d9b2;}.cls-3{fill:#c5e40a;}.cls-4{fill:#ffe817;}.cls-5{fill:#f44563;}.cls-6{fill:#931f1d;}.cls-7{fill:#e4eae9;}.cls-8{fill:#4e76c4;}.cls-9{fill:#00a00f;}.cls-10{fill:#c10000;}.cls-11,.cls-17{font-size:12px;font-family:JosefinSans-Bold, Josefin Sans;font-weight:700;}.cls-12{letter-spacing:-0.05em;}.cls-13{letter-spacing:-0.05em;}.cls-14{letter-spacing:-0.04em;}.cls-15{letter-spacing:-0.11em;}.cls-16{letter-spacing:-0.04em;}.cls-17{fill:#efefef;}.cls-18{fill:#090446;}.cls-19{fill:#baccca;}.cls-20{fill:#3f5404;}.cls-21{fill:#ef927d;}.cls-22{fill:#f37924;}.cls-23{fill:#d9d9c1;}.cls-24{fill:#dc6176;}</style></defs><title>pattern</title><rect class="cls-1" x="42.91" y="113.65" width="583.06" height="103.73"/><rect class="cls-1" x="42.91" y="56.96" width="583.06" height="28.16"/><path class="cls-2" d="M113,85.12H71.51a20.74,20.74,0,0,1,41.49,0Z"/><path class="cls-3" d="M175.23,85.12H133.74a20.74,20.74,0,0,1,41.49,0Z"/><path class="cls-3" d="M172.65,176.63a13.48,13.48,0,0,1,2.52,7.88A13.63,13.63,0,0,1,155,196.45a13.63,13.63,0,0,1-17.68-19.82A13.63,13.63,0,0,1,155,156.81a13.62,13.62,0,0,1,17.66,19.82Z"/><path class="cls-4" d="M209.56,196a8.59,8.59,0,1,1-12.15-12.15c3.36-3.36,19.3-7,19.3-7S212.91,192.59,209.56,196Z"/><path class="cls-4" d="M223.89,157.57A8.59,8.59,0,1,1,236,169.72c-3.36,3.36-19.3,7-19.3,7S220.54,160.93,223.89,157.57Z"/><path class="cls-4" d="M235.91,183.92a8.59,8.59,0,0,1-12.15,12.15c-3.36-3.36-7-19.3-7-19.3S232.55,180.56,235.91,183.92Z"/><path class="cls-4" d="M197.53,169.61a8.59,8.59,0,0,1,12.15-12.15c3.36,3.36,7,19.3,7,19.3S200.89,173,197.53,169.61Z"/><path class="cls-4" d="M237.47,85.12H196a20.74,20.74,0,0,1,41.49,0Z"/><ellipse class="cls-2" cx="94.97" cy="166.27" rx="20.75" ry="10.26"/><ellipse class="cls-2" cx="94.97" cy="187.27" rx="20.75" ry="10.26"/><path class="cls-5" d="M299.7,85.12H258.21a20.75,20.75,0,0,1,41.49,0Z"/><path class="cls-6" d="M607.44,276.57c-5.46,3.41-6.37,6.6-3.27,12.09-6.32,0-8.61,2.28-8.59,8.59-5.49-3.1-8.69-2.19-12.09,3.27-3.41-5.46-6.6-6.37-12.09-3.27,0-6.32-2.28-8.61-8.59-8.59,3.1-5.49,2.19-8.69-3.27-12.09,5.46-3.41,6.37-6.6,3.27-12.09,6.32,0,8.61-2.28,8.59-8.59,5.49,3.1,8.69,2.19,12.09-3.27,3.41,5.46,6.6,6.37,12.09,3.27,0,6.32,2.28,8.61,8.59,8.59C601.06,270,602,273.17,607.44,276.57Z"/><path class="cls-7" d="M413.71,85.12H372.22a20.74,20.74,0,0,1,41.49,0Z"/><path class="cls-8" d="M475.94,85.12H434.45a20.74,20.74,0,0,1,41.49,0Z"/><path class="cls-9" d="M538.18,85.12H496.69a20.74,20.74,0,0,1,41.49,0Z"/><path class="cls-10" d="M600.41,85.12H558.92a20.74,20.74,0,0,1,41.49,0Z"/><text class="cls-11" transform="translate(72 50.97)">T<tspan class="cls-12" x="6.64" y="0">r</tspan><tspan x="10.04" y="0">anquil</tspan></text><text class="cls-11" transform="translate(130.67 50.97)">Contented</text><text class="cls-11" transform="translate(201.1 50.97)">Joy<tspan class="cls-13" x="15.8" y="0">f</tspan><tspan x="19.15" y="0">ul</tspan></text><text class="cls-11" transform="translate(259.69 50.97)"><tspan class="cls-14">E</tspan><tspan x="6.76" y="0">xcited</tspan></text><text class="cls-11" transform="translate(370.84 50.97)"><tspan class="cls-15">F</tspan><tspan x="5.66" y="0">ati</tspan><tspan class="cls-16" x="17.78" y="0">g</tspan><tspan x="23.53" y="0">ued</tspan></text><text class="cls-11" transform="translate(440.73 50.97)">Upset</text><text class="cls-11" transform="translate(496.12 50.97)">Anxious</text><text class="cls-11" transform="translate(562.65 50.97)">Angry</text><text class="cls-17" transform="translate(74.93 141.79)">T<tspan class="cls-12" x="6.64" y="0">r</tspan><tspan x="10.04" y="0">anquil</tspan></text><text class="cls-17" transform="translate(131.43 141.79)">Contented</text><text class="cls-17" transform="translate(202.76 141.79)">Joy<tspan class="cls-13" x="15.8" y="0">f</tspan><tspan x="19.15" y="0">ul</tspan></text><text class="cls-17" transform="translate(262.62 141.79)"><tspan class="cls-14">E</tspan><tspan x="6.76" y="0">xcited</tspan></text><text class="cls-17" transform="translate(373.77 141.79)"><tspan class="cls-15">F</tspan><tspan x="5.66" y="0">ati</tspan><tspan class="cls-16" x="17.78" y="0">g</tspan><tspan x="23.53" y="0">ued</tspan></text><text class="cls-17" transform="translate(443.04 141.79)">Upset</text><text class="cls-17" transform="translate(501.62 141.79)">Anxious</text><text class="cls-17" transform="translate(566.9 141.79)">Angry</text><polygon class="cls-18" points="470.05 258.21 443.41 258.21 435.18 283.55 456.73 299.21 478.29 283.55 470.05 258.21"/><rect class="cls-19" x="375.75" y="279.77" width="37.68" height="17.64"/><rect class="cls-19" x="375.75" y="259" width="37.68" height="17.64"/><polygon class="cls-20" points="520.72 277.06 526.78 299.64 543.31 283.11 520.72 277.06"/><polygon class="cls-20" points="520.72 277.06 514.67 254.47 498.14 271.01 520.72 277.06"/><polygon class="cls-20" points="520.72 277.06 543.31 271.01 526.78 254.47 520.72 277.06"/><polygon class="cls-20" points="520.72 277.06 498.14 283.11 514.67 299.64 520.72 277.06"/><path class="cls-5" d="M283.43,155.79h0a4,4,0,0,1,7.28,2.65h0a4,4,0,0,0,5.13,4.31h0a4,4,0,0,1,3.87,6.71h0a4,4,0,0,0,1.16,6.6h0a4,4,0,0,1-1.35,7.63h0a4,4,0,0,0-3.35,5.8h0a4,4,0,0,1-5.94,5h0a4,4,0,0,0-6.3,2.29h0a4,4,0,0,1-7.75,0h0a4,4,0,0,0-6.3-2.29h0a4,4,0,0,1-5.94-5h0a4,4,0,0,0-3.35-5.8h0a4,4,0,0,1-1.35-7.63h0a4,4,0,0,0,1.16-6.6h0a4,4,0,0,1,3.87-6.71h0a4,4,0,0,0,5.13-4.31h0a4,4,0,0,1,7.28-2.65h0A4,4,0,0,0,283.43,155.79Z"/><path class="cls-21" d="M171.89,276.43a13.48,13.48,0,0,1,2.52,7.88,13.63,13.63,0,0,1-20.18,11.94,13.63,13.63,0,0,1-17.68-19.82,13.63,13.63,0,0,1,17.68-19.82,13.62,13.62,0,0,1,17.66,19.82Z"/><path class="cls-22" d="M208.84,295.75a8.59,8.59,0,0,1-12.15-12.15c3.36-3.36,19.3-7,19.3-7S212.19,292.39,208.84,295.75Z"/><path class="cls-22" d="M223.17,257.37a8.59,8.59,0,1,1,12.15,12.15c-3.36,3.36-19.3,7-19.3,7S219.82,260.73,223.17,257.37Z"/><path class="cls-22" d="M235.19,283.72A8.59,8.59,0,0,1,223,295.87c-3.36-3.36-7-19.3-7-19.3S231.83,280.36,235.19,283.72Z"/><path class="cls-22" d="M196.81,269.41A8.59,8.59,0,0,1,209,257.26c3.36,3.36,7,19.3,7,19.3S200.17,272.76,196.81,269.41Z"/><ellipse class="cls-23" cx="92.04" cy="266.07" rx="20.75" ry="10.26"/><ellipse class="cls-23" cx="92.04" cy="287.07" rx="20.75" ry="10.26"/><path class="cls-10" d="M607.88,177.27c-5.51,3.44-6.43,6.66-3.3,12.2-6.37,0-8.69,2.3-8.67,8.67-5.55-3.13-8.77-2.21-12.2,3.3-3.44-5.51-6.66-6.43-12.2-3.3,0-6.37-2.3-8.69-8.67-8.67,3.13-5.55,2.21-8.77-3.3-12.2,5.51-3.44,6.43-6.66,3.3-12.2,6.37,0,8.69-2.3,8.67-8.67,5.55,3.13,8.77,2.21,12.2-3.3,3.44,5.51,6.66,6.43,12.2,3.3,0,6.37,2.3,8.69,8.67,8.67C601.45,170.62,602.38,173.84,607.88,177.27Z"/><text class="cls-11" transform="translate(72 241.59)">T<tspan class="cls-12" x="6.64" y="0">r</tspan><tspan x="10.04" y="0">anquil</tspan></text><text class="cls-11" transform="translate(130.67 241.59)">Contented</text><text class="cls-11" transform="translate(202.04 241.59)">Joy<tspan class="cls-13" x="15.8" y="0">f</tspan><tspan x="19.15" y="0">ul</tspan></text><text class="cls-11" transform="translate(259.69 241.59)"><tspan class="cls-14">E</tspan><tspan x="6.76" y="0">xcited</tspan></text><text class="cls-11" transform="translate(370.84 241.59)"><tspan class="cls-15">F</tspan><tspan x="5.66" y="0">ati</tspan><tspan class="cls-16" x="17.78" y="0">g</tspan><tspan x="23.53" y="0">ued</tspan></text><text class="cls-11" transform="translate(440.11 241.59)">Upset</text><text class="cls-11" transform="translate(498.69 241.59)">Anxious</text><text class="cls-11" transform="translate(563.97 241.59)">Angry</text><polygon class="cls-8" points="471.23 157.76 442.79 157.76 434 184.81 457.01 201.53 480.02 184.81 471.23 157.76"/><rect class="cls-7" x="375.75" y="179.65" width="37.68" height="16.06"/><rect class="cls-7" x="375.75" y="158.42" width="37.68" height="16.06"/><polygon class="cls-9" points="521.23 176.84 527.28 199.42 543.82 182.89 521.23 176.84"/><polygon class="cls-9" points="521.23 176.84 515.18 154.25 498.65 170.79 521.23 176.84"/><polygon class="cls-9" points="521.23 176.84 543.82 170.79 527.28 154.25 521.23 176.84"/><polygon class="cls-9" points="521.23 176.84 498.65 182.89 515.18 199.42 521.23 176.84"/><path class="cls-24" d="M291.53,292.53h0a4,4,0,0,1-7,3.27h0a4,4,0,0,0-6.68.58h0a4,4,0,0,1-7.49-2h0a4,4,0,0,0-5.49-3.84h0a4,4,0,0,1-4.44-6.35h0a4,4,0,0,0-1.73-6.47h0a4,4,0,0,1,.68-7.72h0a4,4,0,0,0,2.83-6.07h0a4,4,0,0,1,5.48-5.48h0a4,4,0,0,0,6.07-2.83h0a4,4,0,0,1,7.72-.68h0a4,4,0,0,0,6.47,1.73h0a4,4,0,0,1,6.35,4.44h0a4,4,0,0,0,3.84,5.49h0a4,4,0,0,1,2,7.49h0a4,4,0,0,0-.58,6.68h0a4,4,0,0,1-3.27,7h0A4,4,0,0,0,291.53,292.53Z"/><path class="cls-23" d="M113,85.12a20.74,20.74,0,1,1-41.49,0Z"/><path class="cls-21" d="M175.23,85.12a20.74,20.74,0,1,1-41.49,0Z"/><path class="cls-22" d="M237.47,85.12a20.74,20.74,0,1,1-41.49,0Z"/><path class="cls-24" d="M299.7,85.12a20.75,20.75,0,1,1-41.49,0Z"/><path class="cls-19" d="M413.71,85.12a20.74,20.74,0,1,1-41.49,0Z"/><path class="cls-18" d="M475.94,85.12a20.74,20.74,0,1,1-41.49,0Z"/><path class="cls-20" d="M538.18,85.12a20.74,20.74,0,1,1-41.49,0Z"/><path class="cls-6" d="M600.41,85.12a20.74,20.74,0,1,1-41.49,0Z"/></svg>